<?xml version="1.0" encoding="utf-8"?>
<!-- Designed by Vexels.com - 2016 All Rights Reserved - https://vexels.com/terms-and-conditions/  -->

<svg version="1.1" id="Layer_1" xmlns="http://www.w3.org/2000/svg" xmlns:xlink="http://www.w3.org/1999/xlink" x="0px" y="0px"
	 width="1200px" height="1200px" viewBox="0 0 1200 1200" enable-background="new 0 0 1200 1200" xml:space="preserve">
<path fill="#575756" d="M1122.828,572.785h-43.024c-10.621-248.983-211.185-448.717-460.515-458.121V84.969
	c0-14.977-12.19-27.172-27.172-27.172c-14.977,0-27.168,12.195-27.168,27.172v30.739
	C323.89,133.735,132.471,329.769,122.198,572.785h-45.11c-14.893,0-27.088,12.15-27.088,27.217
	c0,14.977,12.195,27.212,27.088,27.212h45.806c16.547,237.01,205.263,426.512,442.056,444.102v43.675
	c0,14.977,12.191,27.212,27.168,27.212c14.982,0,27.172-12.235,27.172-27.212v-42.631c245.063-9.23,442.84-202.214,459.735-445.145
	h43.804c14.977,0,27.172-12.235,27.172-27.212C1150,584.936,1137.805,572.785,1122.828,572.785z M998.118,572.785h-81.686
	c-10.362-158.847-137.859-285.688-297.143-294.878v-81.642C823.594,205.541,987.666,368.918,998.118,572.785z M844.06,627.215h16.81
	c-15.762,122.926-116.523,219.068-241.581,227.776v-18.723c0-15.022-12.19-27.212-27.172-27.212
	c-14.977,0-27.168,12.191-27.168,27.212v16.81c-116.786-16.07-208.835-108.818-223.901-225.863h14.803
	c15.066,0,27.172-12.235,27.172-27.212c0-15.067-12.106-27.217-27.172-27.217h-16.11c9.667-123.14,104.154-222.113,225.208-238.79
	v29.736c0,15.026,12.191,27.172,27.168,27.172c14.982,0,27.172-12.146,27.172-27.172v-31.569
	c129.414,8.927,232.873,111.561,242.972,240.622H844.06c-15.066,0-27.168,12.15-27.168,27.217
	C816.892,614.98,828.994,627.215,844.06,627.215z M564.949,197.528v81.994C414.11,296.635,295.5,419.905,285.57,572.785h-81.771
	C213.899,374.839,369,215.118,564.949,197.528z M204.754,627.215h81.865c15.588,146.83,131.674,263.701,278.331,280.377v81.949
	C373.267,972.299,220.868,819.155,204.754,627.215z M619.289,990.759v-81.642c154.843-8.927,279.9-129.151,296.01-281.902h81.949
	C980.612,825.076,819.242,981.658,619.289,990.759z"/>
</svg>
